#!OML:ASF H:\Dans Jumps\Project 1\Capture day 1\Session 1\subject.ASF
:FULLY-SPECIFIED
:DEGREES
490
root 0.602728 15.3093 -16.5401 22.6729 -0.805305 -1.39807
lowerback 20.7297 0.340371 -0.365847
upperback 10.366 0.419314 2.10956
thorax -0.375018 0.127631 2.3645
lowerneck -14.7698 0.658958 -0.577227
upperneck 8.35773 1.21046 -1.7784
head 4.92022 0.450954 -0.360887
rclavicle 3.97569e-016 -1.19271e-015
rhumerus -22.3226 -2.36126 -82.5795
rradius 35.4264
rwrist 22.005
rhand -19.2179 -27.1337
rfingers 7.12502
rthumb 7.0948 -56.9948
lclavicle 3.97569e-016 -1.19271e-015
lhumerus -23.6251 -11.7975 91.3744
lradius 23.3209
lwrist 15.6251
lhand -26.4689 -3.04953
lfingers 7.12502
lthumb 0.0929077 26.9302
rfemur -67.3002 -3.53236 22.0924
rtibia 67.672
rfoot -23.0046 -7.75153
rtoes 0.840802
lfemur -67.0978 5.70325 -21.5472
ltibia 66.6183
lfoot -20.3797 11.7177
ltoes -1.90654
491
root 0.597631 15.2976 -16.5289 22.751 -0.78706 -1.39105
lowerback 20.7733 0.341135 -0.373029
upperback 10.3657 0.419563 2.11317
thorax -0.397104 0.127554 2.37247
lowerneck -14.7623 0.65936 -0.585874
upperneck 8.2925 1.21115 -1.77606
head 4.89857 0.451864 -0.358789
rclavicle 4.37326e-015 3.97569e-015
rhumerus -22.3347 -2.41544 -82.5588
rradius 35.3973
rwrist 21.9447
rhand -19.1764 -27.1626
rfingers 7.12502
rthumb 7.13487 -57.0223
lclavicle 4.37326e-015 3.97569e-015
lhumerus -23.5766 -11.6906 91.3778
lradius 23.2849
lwrist 15.5678
lhand -26.4468 -3.05887
lfingers 7.12502
lthumb 0.114243 26.9208
rfemur -67.4442 -3.54406 22.1199
rtibia 67.8567
rfoot -23.149 -7.81324
rtoes 0.744578
lfemur -67.2421 5.70967 -21.5488
ltibia 66.8005
lfoot -20.5097 11.7648
ltoes -2.00615
492
root 0.592553 15.2863 -16.5166 22.8247 -0.772735 -1.38968
lowerback 20.8131 0.341283 -0.379653
upperback 10.3634 0.419115 2.11785
thorax -0.419528 0.127125 2.3814
lowerneck -14.7514 0.662453 -0.590838
upperneck 8.23166 1.21535 -1.7788
head 4.87784 0.454244 -0.358583
rclavicle 1.03368e-014 1.59028e-015
rhumerus -22.3441 -2.4417 -82.5421
rradius 35.3838
rwrist 21.8751
rhand -19.1435 -27.1817
rfingers 7.12502
rthumb 7.16661 -57.0404
lclavicle 1.03368e-014 1.59028e-015
lhumerus -23.5232 -11.5893 91.3781
lradius 23.2668
lwrist 15.5378
lhand -26.433 -3.06911
lfingers 7.12502
lthumb 0.127588 26.9106
rfemur -67.5739 -3.5474 22.1495
rtibia 68.0363
rfoot -23.2992 -7.87955
rtoes 0.640559
lfemur -67.3743 5.72296 -21.5458
ltibia 66.9797
lfoot -20.6386 11.8134
ltoes -2.10802
493
root 0.587425 15.2755 -16.5031 22.8948 -0.75665 -1.39232
lowerback 20.8489 0.340498 -0.383634
upperback 10.3586 0.418004 2.12424
thorax -0.442614 0.126443 2.39078
lowerneck -14.7395 0.666488 -0.592025
upperneck 8.17884 1.22066 -1.78549
head 4.85951 0.456949 -0.360119
rclavicle -6.75868e-015 -3.57812e-015
rhumerus -22.354 -2.44364 -82.528
rradius 35.3866
rwrist 21.7991
rhand -19.1244 -27.1948
rfingers 7.12502
rthumb 7.18511 -57.0528
lclavicle -6.75868e-015 -3.57812e-015
lhumerus -23.4622 -11.5023 91.3765
lradius 23.2633
lwrist 15.5332
lhand -26.4397 -3.10319
lfingers 7.12502
lthumb 0.12105 26.8765
rfemur -67.6902 -3.54679 22.1814
rtibia 68.2124
rfoot -23.4568 -7.95226
rtoes 0.53269
lfemur -67.4955 5.73606 -21.5367
ltibia 67.1552
lfoot -20.7656 11.864
ltoes -2.2084
494
root 0.582261 15.2652 -16.4884 22.9619 -0.738263 -1.39465
lowerback 20.8785 0.339081 -0.386075
upperback 10.352 0.416355 2.13018
thorax -0.464447 0.125586 2.3989
lowerneck -14.729 0.670217 -0.587302
upperneck 8.13432 1.22485 -1.79476
head 4.84403 0.459032 -0.363497
rclavicle -3.57812e-015 -4.96962e-015
rhumerus -22.3576 -2.4277 -82.5181
rradius 35.3977
rwrist 21.7204
rhand -19.1266 -27.1945
rfingers 7.12502
rthumb 7.18292 -57.0526
lclavicle -3.57812e-015 -4.96962e-015
lhumerus -23.3912 -11.4426 91.3737
lradius 23.2729
lwrist 15.5584
lhand -26.4586 -3.14881
lfingers 7.12502
lthumb 0.102802 26.8309
rfemur -67.7953 -3.54537 22.2119
rtibia 68.3866
rfoot -23.6209 -8.03297
rtoes 0.410594
lfemur -67.6061 5.7455 -21.5255
ltibia 67.327
lfoot -20.8911 11.9156
ltoes -2.30652
495
root 0.577026 15.2552 -16.4725 23.0247 -0.716543 -1.39389
lowerback 20.9048 0.33677 -0.388609
upperback 10.3441 0.413565 2.1353
thorax -0.486044 0.124218 2.40642
lowerneck -14.726 0.672101 -0.582691
upperneck 8.10105 1.22641 -1.79995
head 4.83325 0.459948 -0.36577
rclavicle 0 -1.98785e-015
rhumerus -22.3508 -2.40004 -82.5108
rradius 35.4087
rwrist 21.6595
rhand -19.1477 -27.1927
rfingers 7.12502
rthumb 7.1626 -57.0515
lclavicle 0 -1.98785e-015
lhumerus -23.3086 -11.4092 91.3687
lradius 23.2964
lwrist 15.6004
lhand -26.4905 -3.18679
lfingers 7.12502
lthumb 0.0719627 26.7929
rfemur -67.8881 -3.54402 22.2377
rtibia 68.5609
rfoot -23.7933 -8.12023
rtoes 0.296529
lfemur -67.7045 5.74844 -21.5137
ltibia 67.4955
lfoot -21.0178 11.9685
ltoes -2.39452
496
root 0.571748 15.2455 -16.4552 23.0842 -0.694254 -1.38906
lowerback 20.925 0.335544 -0.391051
upperback 10.3341 0.41212 2.1377
thorax -0.507 0.123629 2.4107
lowerneck -14.728 0.671461 -0.575897
upperneck 8.07766 1.224 -1.80169
head 4.8263 0.459094 -0.367629
rclavicle 6.55989e-015 -7.95139e-016
rhumerus -22.3358 -2.37233 -82.5059
rradius 35.4227
rwrist 21.6121
rhand -19.1783 -27.1844
rfingers 7.12502
rthumb 7.133 -57.0442
lclavicle 6.55989e-015 -7.95139e-016
lhumerus -23.2137 -11.405 91.3613
lradius 23.3282
lwrist 15.6504
lhand -26.5471 -3.25522
lfingers 7.12502
lthumb 0.0173334 26.7245
rfemur -67.9699 -3.54218 22.2577
rtibia 68.7355
rfoot -23.9733 -8.21969
rtoes 0.181406
lfemur -67.7909 5.74684 -21.5036
ltibia 67.6612
lfoot -21.1505 12.0271
ltoes -2.47355
497
root 0.566389 15.2362 -16.4366 23.138 -0.669472 -1.3797
lowerback 20.9418 0.333426 -0.393314
upperback 10.3242 0.409485 2.13702
thorax -0.525987 0.122553 2.41181
lowerneck -14.743 0.669262 -0.569433
upperneck 8.06478 1.21908 -1.79614
head 4.82468 0.457314 -0.367325
rclavicle -2.38542e-015 -2.74323e-014
rhumerus -22.3065 -2.34818 -82.5043
rradius 35.4393
rwrist 21.5819
rhand -19.2025 -27.1776
rfingers 7.12502
rthumb 7.10973 -57.0382
lclavicle -2.38542e-015 -2.74323e-014
lhumerus -23.105 -11.4249 91.3486
lradius 23.3737
lwrist 15.7018
lhand -26.6185 -3.33545
lfingers 7.12502
lthumb -0.0516568 26.6443
rfemur -68.0379 -3.54161 22.2723
rtibia 68.9108
rfoot -24.1627 -8.33465
rtoes 0.0743463
lfemur -67.8626 5.74134 -21.4961
ltibia 67.8253
lfoot -21.2973 12.0942
ltoes -2.556
498
root 0.560948 15.2271 -16.4166 23.1871 -0.642737 -1.36705
lowerback 20.9564 0.329151 -0.396759
upperback 10.3102 0.403937 2.1351
thorax -0.548231 0.120106 2.41289
lowerneck -14.7588 0.667785 -0.56638
upperneck 8.05846 1.21558 -1.78755
head 4.82519 0.456261 -0.365396
rclavicle -8.74653e-015 -1.39149e-014
rhumerus -22.2662 -2.32782 -82.5038
rradius 35.4539
rwrist 21.5756
rhand -19.2145 -27.1749
rfingers 7.12502
rthumb 7.09812 -57.0359
lclavicle -8.74653e-015 -1.39149e-014
lhumerus -22.99 -11.4577 91.333
lradius 23.427
lwrist 15.7436
lhand -26.7335 -3.46397
lfingers 7.12502
lthumb -0.162733 26.5157
rfemur -68.0935 -3.54064 22.2825
rtibia 69.0871
rfoot -24.3626 -8.47074
rtoes -0.0140565
lfemur -67.9211 5.73309 -21.4905
ltibia 67.9887
lfoot -21.4605 12.1771
ltoes -2.6533
499
root 0.555388 15.2183 -16.3954 23.232 -0.612412 -1.35283
lowerback 20.9691 0.322641 -0.400157
upperback 10.2947 0.395578 2.13277
thorax -0.571115 0.116319 2.41406
lowerneck -14.7925 0.667248 -0.562076
upperneck 8.06538 1.21366 -1.77994
head 4.83275 0.455732 -0.363783
rclavicle 5.96354e-015 -9.54166e-015
rhumerus -22.2107 -2.31275 -82.504
rradius 35.4754
rwrist 21.5714
rhand -19.2028 -27.1659
rfingers 7.12502
rthumb 7.1094 -57.0265
lclavicle 5.96354e-015 -9.54166e-015
lhumerus -22.8645 -11.5041 91.313
lradius 23.4938
lwrist 15.7815
lhand -26.8693 -3.62348
lfingers 7.12502
lthumb -0.293837 26.3561
rfemur -68.1369 -3.54089 22.2915
rtibia 69.2642
rfoot -24.5765 -8.63108
rtoes -0.0806921
lfemur -67.9671 5.72338 -21.4856
ltibia 68.1516
lfoot -21.6426 12.283
ltoes -2.77896
500
root 0.549742 15.2099 -16.3728 23.2726 -0.577433 -1.33636
lowerback 20.9801 0.313644 -0.402204
upperback 10.277 0.384318 2.12948
thorax -0.595239 0.111223 2.41406
lowerneck -14.8412 0.667018 -0.558426
upperneck 8.08307 1.21239 -1.76992
head 4.84607 0.455477 -0.361213
rclavicle -3.97569e-016 -7.55382e-015
rhumerus -22.14 -2.31187 -82.5054
rradius 35.5036
rwrist 21.5652
rhand -19.1562 -27.1575
rfingers 7.12502
rthumb 7.15435 -57.0166
lclavicle -3.97569e-016 -7.55382e-015
lhumerus -22.7286 -11.5682 91.2875
lradius 23.5749
lwrist 15.824
lhand -27.0005 -3.77053
lfingers 7.12502
lthumb -0.420613 26.2088
rfemur -68.167 -3.54481 22.2995
rtibia 69.4425
rfoot -24.8121 -8.81635
rtoes -0.115106
lfemur -67.9993 5.71188 -21.4822
ltibia 68.3148
lfoot -21.8437 12.4249
ltoes -2.92589
